# xmcd
#
# Track frame offsets: 
#        150
#        12471
#        25731
#        36334
#        50307
#        62832
#        79201
#        91204
#        104108
#        117000
#
# Disc length: 1784 seconds
#
# Revision: 3
# Processed by: cddbd v1.5.2PL0 Copyright (c) Steve Scherf et al.
# Submitted via: ExactAudioCopy v1.3
#
DISCID=7e06f60a
DTITLE=Hank Williams Jr. - Best Of Hank Williams, Jr.
DYEAR=1991
DGENRE=Country
TTITLE0=Hank
TTITLE1=Raining In My Heart
TTITLE2=Ain't That A Shame
TTITLE3=Rainy Night In Georgia
TTITLE4=Stoned At The Jukebox
TTITLE5=Living Proof
TTITLE6=Cajun Baby
TTITLE7=Wolverton Mountain
TTITLE8=That Old Wheel
TTITLE9=All For The Love Of Sunshine
EXTD=
EXTT0=
EXTT1=
EXTT2=
EXTT3=
EXTT4=
EXTT5=
EXTT6=
EXTT7=
EXTT8=with Johnny Cash
EXTT9=
PLAYORDER=
